<svg width="76" height="70" viewBox="0 0 76 70" fill="none" xmlns="http://www.w3.org/2000/svg">
<path d="M74.6616 12.5977L56.2136 24.021L38.5241 0.307416C38.4529 0.211973 38.3606 0.134501 38.2545 0.0811415C38.1483 0.0277816 38.0313 0 37.9126 0C37.7939 0 37.6769 0.0277816 37.5708 0.0811415C37.4646 0.134501 37.3723 0.211973 37.3012 0.307416L19.6211 24.021L1.16365 12.5977C0.623294 12.2642 -0.0782218 12.712 0.00709763 13.3504L7.24977 68.6662C7.35405 69.4188 7.99868 70 8.76656 70H67.0776C67.836 70 68.4901 69.4284 68.5849 68.6662L75.8276 13.3504C75.9034 12.712 75.2114 12.2642 74.6616 12.5977ZM62.7169 63.4833H13.1084L8.00816 24.4783L21.2611 32.6814L37.9174 10.3492L54.5736 32.6814L67.8265 24.4783L62.7169 63.4833Z" fill="#68B8F7"/>
</svg>
